<svg width="16" height="18" viewBox="0 0 16 18" fill="none" xmlns="http://www.w3.org/2000/svg">
<path fill-rule="evenodd" clip-rule="evenodd" d="M2.59091 4.32C2.59091 1.93413 4.91089 0 7.77273 0C10.6346 0 12.9545 1.93413 12.9545 4.32C12.9545 6.70587 10.6346 8.64 7.77273 8.64C4.91089 8.64 2.59091 6.70587 2.59091 4.32ZM7.77273 1.23429C5.72856 1.23429 4.07143 2.61581 4.07143 4.32C4.07143 6.02419 5.72856 7.40571 7.77273 7.40571C9.81691 7.40571 11.474 6.02419 11.474 4.32C11.474 2.61581 9.81691 1.23429 7.77273 1.23429Z" fill="currentColor"/>
<path fill-rule="evenodd" clip-rule="evenodd" d="M5.33704 11.3305C3.22033 11.3305 1.5044 12.7569 1.5044 14.5164C1.5044 15.7497 2.70715 16.7495 4.19082 16.7495H11.3546C12.8383 16.7495 14.0411 15.7497 14.0411 14.5164C14.0411 12.7569 12.3251 11.3305 10.2084 11.3305H5.33704ZM0 14.5164C0 12.0662 2.38948 10.08 5.33704 10.08H10.2084C13.156 10.08 15.5455 12.0662 15.5455 14.5164C15.5455 16.4404 13.6692 18 11.3546 18H4.19082C1.87629 18 0 16.4404 0 14.5164Z" fill="currentColor"/>
</svg>
